<svg xmlns="http://www.w3.org/2000/svg" xmlns:xlink="http://www.w3.org/1999/xlink" width="1080" zoomAndPan="magnify" viewBox="0 0 810 809.999993" height="1080" preserveAspectRatio="xMidYMid meet" version="1.0"><path fill="#ed1c24" d="M 405.421875 1.125 C 629.699219 2.09375 809.742188 183.210938 808.425781 406.535156 C 807.105469 630.441406 627.074219 809.808594 404.921875 808.550781 C 180.359375 807.28125 0.5 627.246094 1.609375 404.847656 C 2.722656 180.914062 183.511719 0.167969 405.421875 1.125 Z M 163.835938 649.421875 C 239.46875 728.3125 368.066406 774.214844 496.929688 736.117188 C 631.464844 696.34375 715.480469 605.101562 742.289062 467.546875 C 764.917969 351.410156 730.050781 249.667969 649.796875 164.363281 L 527.921875 286.289062 C 594.46875 356.917969 586.246094 457.738281 535.203125 516.804688 C 509.382812 546.683594 477.375 566.339844 438.582031 573.707031 C 379.136719 584.992188 327.226562 568.644531 284.304688 529.035156 Z M 403.335938 522.863281 C 467.21875 524.105469 520.933594 472.332031 522.007812 408.484375 C 523.097656 343.476562 472.761719 289.964844 409.117188 288.472656 C 341.992188 286.902344 288.40625 337.964844 287.449219 404.414062 C 286.523438 468.871094 338.101562 521.59375 403.335938 522.863281 Z M 403.335938 522.863281 " fill-opacity="1" fill-rule="nonzero"/><path fill="#ffffff" d="M 163.835938 649.421875 L 284.304688 529.035156 C 327.226562 568.644531 379.136719 584.992188 438.582031 573.707031 C 477.375 566.339844 509.382812 546.683594 535.203125 516.804688 C 586.246094 457.742188 594.46875 356.917969 527.921875 286.289062 L 649.796875 164.363281 C 730.050781 249.667969 764.917969 351.410156 742.289062 467.546875 C 715.480469 605.101562 631.464844 696.34375 496.929688 736.117188 C 368.066406 774.214844 239.46875 728.3125 163.835938 649.421875 Z M 163.835938 649.421875 " fill-opacity="1" fill-rule="nonzero"/><path fill="#ffffff" d="M 403.335938 522.863281 C 338.101562 521.59375 286.523438 468.871094 287.449219 404.414062 C 288.40625 337.964844 341.992188 286.902344 409.117188 288.472656 C 472.757812 289.964844 523.09375 343.476562 522.003906 408.484375 C 520.933594 472.332031 467.21875 524.105469 403.335938 522.863281 Z M 403.335938 522.863281 " fill-opacity="1" fill-rule="nonzero"/></svg>