<svg xmlns="http://www.w3.org/2000/svg" xmlns:xlink="http://www.w3.org/1999/xlink" width="1080" zoomAndPan="magnify" viewBox="0 0 810 809.999993" height="1080" preserveAspectRatio="xMidYMid meet" version="1.0"><defs><filter x="0%" y="0%" width="100%" height="100%" id="6c680d93bc"><feColorMatrix values="0 0 0 0 1 0 0 0 0 1 0 0 0 0 1 0 0 0 1 0" color-interpolation-filters="sRGB"/></filter><mask id="15dcd0af8a"><g filter="url(#6c680d93bc)"><rect x="-81" width="972" fill="#000000" y="-80.999999" height="971.999992" fill-opacity="0.25"/></g></mask><clipPath id="3cbd6e8eee"><path d="M 1 1 L 808 1 L 808 808.800781 L 1 808.800781 Z M 1 1 " clip-rule="nonzero"/></clipPath><clipPath id="24d0baf6d8"><rect x="0" width="809" y="0" height="809"/></clipPath></defs><g mask="url(#15dcd0af8a)"><g transform="matrix(1, 0, 0, 1, 0.000000000000000111, 0.000000000000039746)"><g clip-path="url(#24d0baf6d8)"><g clip-path="url(#3cbd6e8eee)"><path fill="#ffffff" d="M 404.78125 1.125 C 628.984375 2.09375 808.964844 183.210938 807.648438 406.535156 C 806.328125 630.441406 626.359375 809.808594 404.28125 808.550781 C 179.792969 807.28125 -0.0078125 627.246094 1.101562 404.847656 C 2.21875 180.914062 182.945312 0.167969 404.78125 1.125 Z M 163.277344 649.421875 C 238.882812 728.3125 367.4375 774.214844 496.261719 736.117188 C 630.75 696.34375 714.738281 605.101562 741.535156 467.546875 C 764.160156 351.410156 729.300781 249.667969 649.074219 164.363281 L 527.238281 286.289062 C 593.765625 356.917969 585.542969 457.738281 534.519531 516.804688 C 508.707031 546.683594 476.710938 566.339844 437.929688 573.707031 C 378.503906 584.992188 326.609375 568.644531 283.703125 529.035156 Z M 402.695312 522.863281 C 466.554688 524.105469 520.253906 472.332031 521.328125 408.484375 C 522.417969 343.476562 472.097656 289.964844 408.476562 288.472656 C 341.371094 286.902344 287.804688 337.964844 286.847656 404.414062 C 285.921875 468.871094 337.484375 521.59375 402.695312 522.863281 Z M 402.695312 522.863281 " fill-opacity="1" fill-rule="nonzero"/></g><path fill="#c4c4c4" d="M 163.277344 649.421875 L 283.707031 529.035156 C 326.613281 568.644531 378.503906 584.992188 437.929688 573.707031 C 476.710938 566.339844 508.707031 546.683594 534.519531 516.804688 C 585.546875 457.742188 593.765625 356.917969 527.242188 286.289062 L 649.074219 164.363281 C 729.300781 249.667969 764.160156 351.410156 741.535156 467.546875 C 714.738281 605.101562 630.75 696.34375 496.261719 736.117188 C 367.4375 774.214844 238.882812 728.3125 163.277344 649.421875 Z M 163.277344 649.421875 " fill-opacity="1" fill-rule="nonzero"/><path fill="#c4c4c4" d="M 402.695312 522.863281 C 337.484375 521.59375 285.921875 468.871094 286.847656 404.414062 C 287.804688 337.964844 341.371094 286.902344 408.476562 288.472656 C 472.09375 289.964844 522.414062 343.476562 521.324219 408.484375 C 520.253906 472.332031 466.554688 524.105469 402.695312 522.863281 Z M 402.695312 522.863281 " fill-opacity="1" fill-rule="nonzero"/></g></g></g></svg>